<svg width="24" height="24" viewBox="0 0 24 24" fill="none" xmlns="http://www.w3.org/2000/svg">
<path d="M23.0493 19.2807L19.3038 15.4881C19.1505 15.3329 18.9686 15.2098 18.7683 15.1258C18.5681 15.0418 18.3534 14.9985 18.1367 14.9985C17.9199 14.9985 17.7053 15.0418 17.505 15.1258C17.3048 15.2098 17.1228 15.3329 16.9696 15.4881L15.3193 13.8171C16.6592 12.1581 17.3181 10.041 17.1597 7.90375C17.0013 5.76655 16.0376 3.77278 14.4681 2.33485C12.8985 0.896923 10.8432 0.124869 8.72721 0.178389C6.61124 0.231909 4.59654 1.10691 3.09986 2.62239C1.60317 4.13787 0.739025 6.17788 0.686169 8.32043C0.633313 10.463 1.39579 12.5441 2.81588 14.1334C4.23597 15.7226 6.20502 16.6984 8.31571 16.8588C10.4264 17.0192 12.5172 16.3521 14.1557 14.9953L15.806 16.6663C15.6527 16.8215 15.5311 17.0057 15.4482 17.2085C15.3652 17.4112 15.3225 17.6286 15.3225 17.848C15.3225 18.0675 15.3652 18.2849 15.4482 18.4876C15.5311 18.6904 15.6527 18.8746 15.806 19.0298L19.5516 22.8224C20.0156 23.2917 20.6446 23.5554 21.3004 23.5554C21.9563 23.5554 22.5853 23.2917 23.0493 22.8224C23.5128 22.3526 23.7732 21.7156 23.7732 21.0516C23.7732 20.3875 23.5128 19.7505 23.0493 19.2807ZM2.32754 8.5226C2.32754 7.20098 2.71458 5.90904 3.43973 4.81015C4.16487 3.71127 5.19555 2.85479 6.40142 2.34903C7.6073 1.84327 8.93421 1.71093 10.2144 1.96877C11.4945 2.22661 12.6704 2.86303 13.5933 3.79755C14.5163 4.73208 15.1448 5.92274 15.3994 7.21896C15.6541 8.51519 15.5234 9.85876 15.0239 11.0798C14.5244 12.3008 13.6785 13.3444 12.5933 14.0787C11.508 14.8129 10.2321 15.2048 8.92688 15.2048C7.17663 15.2048 5.49806 14.5008 4.26044 13.2477C3.02283 11.9945 2.32754 10.2948 2.32754 8.5226ZM21.8866 21.6451C21.732 21.8008 21.5229 21.8881 21.3049 21.8881C21.0869 21.8881 20.8777 21.8008 20.7231 21.6451L16.9776 17.8525L18.1411 16.6744L21.8866 20.467C22.0404 20.6235 22.1266 20.8353 22.1266 21.0561C22.1266 21.2768 22.0404 21.4886 21.8866 21.6451Z" fill="black"/>
</svg>
